<?xml version="1.0" standalone="no"?>
<!DOCTYPE svg PUBLIC "-//W3C//DTD SVG 20010904//EN"
 "http://www.w3.org/TR/2001/REC-SVG-20010904/DTD/svg10.dtd">
<svg version="1.0" xmlns="http://www.w3.org/2000/svg"
 width="680.000000pt" height="107.000000pt" viewBox="0 0 680.000000 107.000000"
 preserveAspectRatio="xMidYMid meet">

<g transform="translate(0.000000,107.000000) scale(0.100000,-0.100000)"
fill="#000000" stroke="none">
<path d="M0 535 l0 -535 225 0 225 0 0 105 0 105 124 0 124 0 46 -68 c25 -38
67 -85 92 -105 l47 -37 340 0 340 0 33 25 c18 14 35 25 38 25 3 0 6 -11 6 -25
l0 -25 870 0 870 0 0 51 c0 45 2 50 18 44 35 -14 118 -20 170 -13 50 8 119 38
168 73 20 15 23 13 59 -30 20 -25 61 -64 89 -85 l53 -40 369 0 369 0 64 39
c35 22 68 46 72 53 5 7 9 57 9 111 0 97 0 97 25 97 l25 0 0 -150 0 -150 295 0
295 0 0 150 0 150 35 0 35 0 0 -149 0 -150 635 1 635 0 0 534 0 534 -3400 0
-3400 0 0 -535z m4390 364 c68 -11 154 -45 196 -78 l24 -19 -46 -41 c-26 -23
-50 -41 -54 -41 -4 0 -29 12 -56 27 -44 25 -59 28 -144 28 -83 0 -101 -3 -140
-25 -123 -69 -166 -247 -92 -383 61 -113 197 -157 341 -110 l51 16 0 104 0
103 70 0 70 0 0 -144 0 -144 -49 -21 c-124 -53 -260 -70 -371 -47 -103 22
-170 57 -229 121 -71 78 -95 145 -95 265 0 120 24 187 95 265 98 106 256 152
429 124z m-3732 -66 l3 -53 -211 0 -211 0 3 -127 3 -128 180 -5 180 -5 3 -52
3 -53 -183 -2 -183 -3 -3 -138 -3 -138 -87 3 -87 3 -3 365 c-1 201 0 371 3
378 3 10 68 12 297 10 l293 -3 3 -52z m382 -208 c5 -279 8 -292 62 -342 75
-70 217 -54 276 30 34 50 42 121 42 358 l0 219 86 0 85 0 -3 -267 c-3 -265 -3
-269 -29 -324 -51 -108 -126 -160 -261 -180 -141 -21 -290 20 -359 98 -70 81
-74 98 -77 401 l-3 273 88 -3 88 -3 5 -260z m978 -58 l2 -317 195 0 195 0 0
-60 0 -60 -285 0 -285 0 0 380 0 381 88 -3 87 -3 3 -318z m762 3 l0 -320 200
0 201 0 -3 -57 -3 -58 -282 -3 -283 -2 0 380 0 380 85 0 85 0 0 -320z m2289
144 c63 -106 107 -172 113 -166 5 5 53 83 106 173 l98 164 72 3 c46 2 72 -1
72 -8 0 -6 -17 -39 -38 -73 -22 -34 -85 -139 -140 -234 l-102 -171 0 -136 0
-136 -85 0 -85 0 0 136 0 136 -140 234 c-77 129 -140 239 -140 244 0 6 35 10
83 10 l83 0 103 -176z m818 165 c7 -7 78 -121 160 -255 81 -134 151 -244 154
-244 3 0 68 105 144 233 75 127 144 242 151 255 13 20 23 22 89 22 l75 0 0
-380 0 -380 -75 0 -75 0 0 265 c0 146 -3 265 -7 265 -5 0 -68 -102 -141 -225
-129 -218 -135 -225 -165 -225 -30 0 -37 8 -111 128 -44 70 -104 167 -135 216
l-56 90 -5 -255 -5 -254 -75 0 -75 0 -3 365 c-1 201 0 371 3 377 6 17 136 18
152 2z m-2292 -328 c81 -46 86 -179 9 -240 -110 -86 -271 21 -235 157 26 95
134 136 226 83z"/>
</g>
</svg>
